<svg width="20" height="20" viewBox="0 0 20 20" fill="none" xmlns="http://www.w3.org/2000/svg">
<g clip-path="url(#clip0_2_453)">
<path d="M15.8333 14.0834C16.8459 13.8777 17.746 13.3032 18.3589 12.4713C18.9717 11.6393 19.2536 10.6093 19.1497 9.58128C19.0459 8.55322 18.5638 7.60041 17.7969 6.90784C17.0301 6.21526 16.0333 5.83232 15 5.83336H13.95C13.6739 4.76446 13.1367 3.78085 12.3866 2.97085C11.6365 2.16084 10.6969 1.5498 9.65234 1.19258C8.60775 0.835355 7.4908 0.743136 6.40176 0.924199C5.31273 1.10526 4.28571 1.55394 3.41291 2.22995C2.5401 2.90596 1.84884 3.78814 1.40118 4.79728C0.95352 5.80643 0.763477 6.91095 0.848113 8.01168C0.932749 9.11242 1.28941 10.1749 1.88609 11.1037C2.48276 12.0326 3.30076 12.7987 4.26665 13.3334" stroke="black" stroke-width="2" stroke-linecap="round" stroke-linejoin="round"/>
<path d="M10.8333 9.16669L7.5 14.1667H12.5L9.16667 19.1667" stroke="black" stroke-width="2" stroke-linecap="round" stroke-linejoin="round"/>
</g>
<defs>
<clipPath id="clip0_2_453">
<rect width="20" height="20" fill="white"/>
</clipPath>
</defs>
</svg>
